<?xml version="1.0" encoding="utf-8"?>
<!-- Generator: Adobe Illustrator 19.2.1, SVG Export Plug-In . SVG Version: 6.00 Build 0)  -->
<svg version="1.1" id="Capa_1" xmlns="http://www.w3.org/2000/svg" xmlns:xlink="http://www.w3.org/1999/xlink" x="0px" y="0px"
	 viewBox="0 0 191.3 191.3" style="enable-background:new 0 0 191.3 191.3;" xml:space="preserve">
<style type="text/css">
	.st0{fill:#686868;}
</style>
<g>
	<path class="st0" d="M175.3,0H15.9C7.1,0,0,7.1,0,15.9v159.4c0,8.8,7.1,15.9,15.9,15.9h159.4c8.8,0,15.9-7.1,15.9-15.9V15.9
		C191.3,7.1,184.1,0,175.3,0z M183.3,175.3c0,4.4-3.6,8-8,8H15.9c-4.4,0-8-3.6-8-8V15.9c0-4.4,3.6-8,8-8h159.4c4.4,0,8,3.6,8,8
		L183.3,175.3L183.3,175.3z"/>
	<path class="st0" d="M47.8,31.9c-8.8,0-15.9,7.1-15.9,15.9S39,63.8,47.8,63.8s15.9-7.1,15.9-15.9C63.8,39,56.6,31.9,47.8,31.9z
		 M47.8,55.8c-4.4,0-8-3.6-8-8c0-4.4,3.6-8,8-8s8,3.6,8,8C55.8,52.2,52.2,55.8,47.8,55.8z"/>
	<path class="st0" d="M47.8,79.7c-8.8,0-15.9,7.1-15.9,15.9s7.1,15.9,15.9,15.9s15.9-7.1,15.9-15.9C63.8,86.8,56.6,79.7,47.8,79.7z
		 M47.8,103.6c-4.4,0-8-3.6-8-8c0-4.4,3.6-8,8-8s8,3.6,8,8C55.8,100,52.2,103.6,47.8,103.6z"/>
	<path class="st0" d="M47.8,127.5c-8.8,0-15.9,7.1-15.9,15.9s7.1,15.9,15.9,15.9s15.9-7.1,15.9-15.9S56.6,127.5,47.8,127.5z
		 M47.8,151.4c-4.4,0-8-3.6-8-8s3.6-8,8-8s8,3.6,8,8C55.8,147.8,52.2,151.4,47.8,151.4z"/>
	<path class="st0" d="M155.4,91.6H83.7c-2.2,0-4,1.8-4,4c0,2.2,1.8,4,4,4h71.7c2.2,0,4-1.8,4-4C159.4,93.4,157.6,91.6,155.4,91.6z"
		/>
	<path class="st0" d="M155.4,43.8H83.7c-2.2,0-4,1.8-4,4c0,2.2,1.8,4,4,4h71.7c2.2,0,4-1.8,4-4C159.4,45.6,157.6,43.8,155.4,43.8z"
		/>
	<path class="st0" d="M155.4,139.5H83.7c-2.2,0-4,1.8-4,4c0,2.2,1.8,4,4,4h71.7c2.2,0,4-1.8,4-4
		C159.4,141.2,157.6,139.5,155.4,139.5z"/>
</g>
</svg>
